<?xml version="1.0" encoding="UTF-8" standalone="no"?>
<svg
   xmlns:dc="http://purl.org/dc/elements/1.1/"
   xmlns:cc="http://creativecommons.org/ns#"
   xmlns:rdf="http://www.w3.org/1999/02/22-rdf-syntax-ns#"
   xmlns:svg="http://www.w3.org/2000/svg"
   xmlns="http://www.w3.org/2000/svg"
   xmlns:sodipodi="http://sodipodi.sourceforge.net/DTD/sodipodi-0.dtd"
   xmlns:inkscape="http://www.inkscape.org/namespaces/inkscape"
   id="svg2989"
   viewBox="0 0 500.00002 499.99999"
   version="1.1"
   sodipodi:docname="logo.svg"
   inkscape:export-filename="C:\Users\ahmed\Desktop\Rss_font_awesome.png"
   inkscape:export-xdpi="13.150685"
   inkscape:export-ydpi="13.150685"
   width="500"
   height="500"
   inkscape:version="1.0 (4035a4fb49, 2020-05-01)">
  <metadata
     id="metadata21">
    <rdf:RDF>
      <cc:Work
         rdf:about="">
        <dc:format>image/svg+xml</dc:format>
        <dc:type
           rdf:resource="http://purl.org/dc/dcmitype/StillImage" />
        <dc:title>Rss_font_awesome</dc:title>
      </cc:Work>
    </rdf:RDF>
  </metadata>
  <sodipodi:namedview
     inkscape:document-rotation="0"
     pagecolor="#ffffff"
     bordercolor="#666666"
     borderopacity="1"
     objecttolerance="10"
     gridtolerance="10"
     guidetolerance="10"
     inkscape:pageopacity="0"
     inkscape:pageshadow="2"
     inkscape:window-width="1920"
     inkscape:window-height="1017"
     id="namedview19"
     showgrid="false"
     inkscape:zoom="0.82438244"
     inkscape:cx="285.08055"
     inkscape:cy="117.62064"
     inkscape:window-x="-8"
     inkscape:window-y="-8"
     inkscape:window-maximized="1"
     inkscape:current-layer="svg2989" />
  <defs
     id="defs9">
    <style
       id="style2">.cls-1,.cls-3{stroke:#000;stroke-miterlimit:10;}.cls-1{fill:url(#radial-gradient);}.cls-2,.cls-3{isolation:isolate;}.cls-3{font-size:101.83px;fill:#fff;stroke-width:2px;font-family:CartoonDemiBold;}</style>
    <radialGradient
       id="radial-gradient"
       cx="183.48"
       cy="183.89999"
       r="169.06"
       gradientTransform="matrix(0.87,-0.5,0.45,0.78,-58.17,132.3)"
       gradientUnits="userSpaceOnUse">
      <stop
         offset="0"
         stop-color="#ff6700"
         stop-opacity="0.9"
         id="stop4" />
      <stop
         offset="1"
         stop-color="#ff7300"
         stop-opacity="0.8"
         id="stop6" />
    </radialGradient>
  </defs>
  <title
     id="title11">Rss_font_awesome</title>
  <g
     id="g2991"
     transform="translate(59.997777,64.941995)">
    <path
       id="path2993"
       class="cls-1"
       d="m 86.88,320.57 a 33.69,33.69 0 0 1 -10.19,24.75 33.69,33.69 0 0 1 -24.75,10.19 33.69,33.69 0 0 1 -24.75,-10.19 35.15,35.15 0 0 1 0,-49.5 33.69,33.69 0 0 1 24.75,-10.19 33.69,33.69 0 0 1 24.75,10.19 33.69,33.69 0 0 1 10.19,24.75 z m 169.88,-64.62 a 11,11 0 0 1 -3.09,8.73 10.73,10.73 0 0 1 -8.55,3.82 H 220.54 A 11.37,11.37 0 0 1 209.08,258 q -4,-41.67 -33.57,-71.24 -29.57,-29.57 -71.24,-33.57 A 11.37,11.37 0 0 1 93.72,141.73 v -24.62 a 10.73,10.73 0 0 1 3.82,-8.55 10.6,10.6 0 0 1 7.82,-3.09 h 0.91 a 163.17,163.17 0 0 1 55.68,14.65 160.91,160.91 0 0 1 47.13,33 160.91,160.91 0 0 1 33,47.13 163.17,163.17 0 0 1 14.68,55.7 z m 93.17,0.36 a 10.52,10.52 0 0 1 -3.28,8.55 10.76,10.76 0 0 1 -8.37,3.64 h -26 a 11.36,11.36 0 0 1 -8.1,-3.18 10.88,10.88 0 0 1 -3.55,-7.73 A 203.43,203.43 0 0 0 282.25,183.25 209.15,209.15 0 0 0 240.12,122.11 209.15,209.15 0 0 0 179,80 206.11,206.11 0 0 0 104.66,61.44 10.88,10.88 0 0 1 96.93,57.89 11.14,11.14 0 0 1 93.71,50 V 24 a 10.76,10.76 0 0 1 3.64,-8.37 10.89,10.89 0 0 1 8,-3.28 h 0.55 a 252.5,252.5 0 0 1 91.26,21.84 255.1,255.1 0 0 1 77.43,53.5 255.1,255.1 0 0 1 53.5,77.43 252.5,252.5 0 0 1 21.84,91.19 z"
       transform="translate(-16.5,-11.79)"
       style="fill:url(#radial-gradient)" />
  </g>
  <g
     id="text959"
     class="cls-2"
     transform="translate(59.997777,64.941995)">
    <text
       class="cls-3"
       transform="matrix(0.75,0,0,1,77.21,334.72)"
       id="text15">MyFeeds</text>
  </g>
</svg>
